<?xml version="1.0" encoding="utf-8"?>
<svg xmlns="http://www.w3.org/2000/svg" viewBox="0 0 300 300" style="" xmlns:bx="https://boxy-svg.com" width="300px" height="300px"><defs><clipPath id="clip0_539_413"><rect width="2048" height="1234" fill="white"/></clipPath><bx:export><bx:file format="svg" path="XRA White.svg"/><bx:file format="svg" href="#object-0" path="Just A black.svg"/></bx:export></defs><g clip-path="url(#clip0_539_413)" transform="matrix(1, 0, 0, 1, -976.063354, -494.055084)" id="object-0"><path d="M 1122.38 592.759 C 1124.9 592.673 1128.2 592.588 1130.67 592.902 C 1131.95 595.616 1132.75 598.062 1133.83 600.826 C 1135.95 606.265 1138.05 611.716 1140.11 617.179 L 1156.68 659.989 L 1178.14 715.166 L 1188.04 740.494 C 1190.04 745.574 1192.15 750.668 1193.97 755.815 C 1194.31 756.781 1194.67 757.603 1194.23 758.458 C 1192.3 759.127 1178.01 759.081 1175.81 758.581 C 1173.64 754.022 1171.21 747.263 1169.38 742.45 C 1166.7 735.427 1163.98 728.419 1161.22 721.429 L 1136.34 657.569 C 1131.95 646.199 1127.37 633.567 1122.79 622.402 C 1122.05 620.741 1121.69 619.894 1121.21 618.16 C 1119.4 621.69 1117.7 626.536 1116.2 630.286 L 1108.57 648.896 L 1076.29 727.466 L 1067.65 748.642 C 1066.32 751.862 1064.84 755.698 1063.36 758.784 C 1061.57 758.903 1057.24 759.453 1055.75 758.502 C 1055.51 758.345 1055.2 758.134 1055.14 757.825 C 1054.85 756.299 1067.64 726.154 1069.51 721.664 L 1108.71 625.789 L 1118.15 602.395 C 1119.08 600.116 1121.24 594.43 1122.38 592.759 Z" style="fill: rgb(255, 255, 255);"/><path d="M 1073.17 557.901 C 1073.28 557.921 1073.38 557.936 1073.48 557.962 C 1075.14 558.378 1083.46 570.963 1085.08 573.403 C 1083.27 574.951 1080.09 577.505 1077.89 578.507 C 1077.63 578.627 1076.13 578.756 1075.77 578.785 C 1074.81 578.781 1073.78 578.659 1072.82 578.571 C 1070.96 576.247 1064.23 567.718 1063.98 565.189 C 1064.42 563.7 1071.44 559.447 1073.17 557.901 Z" style="fill: rgb(255, 255, 255);"/><path d="M 1177.6 557.866 C 1181.06 559.666 1185.05 562.847 1188.18 565.248 C 1187.62 566.114 1186.98 567.031 1186.37 567.878 C 1183.94 571.335 1181.63 574.954 1178.95 578.222 C 1178.71 578.513 1177.75 578.676 1177.37 578.744 C 1172.3 578.896 1170.4 576.689 1166.6 573.557 C 1167.44 571.399 1175.76 559.925 1177.6 557.866 Z" style="fill: rgb(255, 255, 255);"/><path d="M 1125.75 529.423 C 1126.76 530.051 1128.5 535.911 1129.79 537.576 C 1131.3 539.54 1137.57 540.511 1137.3 542.296 C 1136.14 543.75 1131.83 545.274 1129.99 545.962 C 1128.59 548.318 1127.33 551.897 1125.98 554.566 C 1124.32 552.355 1123.15 548.756 1121.61 546.004 C 1119.9 545.297 1115.57 543.709 1114.46 542.522 C 1113.91 540.236 1119.95 539.457 1121.33 538.059 C 1123.16 536.205 1124.38 532.018 1125.75 529.423 Z" style="fill: rgb(255, 255, 255);"/><path d="M 1192.43 536.932 C 1194.02 537.172 1201.84 542.892 1202.72 544.26 C 1202.61 545.42 1196.82 553.298 1195.76 554.806 C 1194.18 554.053 1186.23 548.585 1185.45 547.21 C 1185.8 545.56 1191.12 538.323 1192.43 536.932 Z" style="fill: rgb(255, 255, 255);"/><path d="M 1058.24 537.083 C 1058.9 537.101 1059.51 537.319 1059.86 537.891 C 1060.95 539.741 1066.02 545.655 1065.86 547.424 C 1064.57 549.194 1059.04 552.601 1056.78 554.331 C 1056.42 554.566 1056.52 554.49 1056.07 554.581 C 1055.88 554.48 1055.52 554.287 1055.39 554.118 C 1046.46 542.656 1047.62 544.279 1058.24 537.083 Z" style="fill: rgb(255, 255, 255);"/><path d="M 1157.7 529.06 L 1158.71 529.06 C 1161.81 531.424 1166.46 532.622 1168.93 534.707 C 1169.32 536.195 1161.33 551.894 1160.16 554.276 L 1148.37 578.596 C 1144.89 578.898 1138.11 578.522 1135.88 575.472 C 1135.53 574.116 1143.15 559.189 1144.16 557.109 L 1157.7 529.06 Z" style="fill: rgb(255, 255, 255);"/><path d="M 1092.93 529.06 L 1093.94 529.06 C 1094.44 530.996 1096.89 535.43 1098.16 538.209 C 1103.73 550.356 1110.47 562.547 1115.64 574.853 C 1115.79 575.211 1115.3 575.952 1115.03 576.146 C 1111.36 578.777 1107.2 578.869 1103.17 578.643 C 1101.91 575.61 1098.93 570.002 1097.4 566.888 L 1088.65 548.682 C 1087.28 545.892 1082.79 537.567 1082.49 534.992 C 1083.07 533.735 1091.03 530.6 1092.93 529.06 Z" style="fill: rgb(255, 255, 255);"/></g></svg>