<svg width="2048" height="1234" viewBox="0 0 2048 1234" fill="none" xmlns="http://www.w3.org/2000/svg">
  <g clip-path="url(#clip0_539_369)">
    <path d="M924.264 310.004C930.957 309.671 938.636 309.848 945.439 309.843L981.48 309.815L1006.98 309.808C1027.72 309.811 1044.33 311.131 1061.91 323.824C1078.95 335.916 1090.42 354.342 1093.76 374.972C1096.89 394.969 1091.85 415.385 1079.78 431.635C1069.2 445.91 1054.1 456.187 1036.93 460.797C1033.64 461.656 1029.16 462.261 1025.72 462.791C1038.72 470.499 1048.24 476.812 1059.08 487.297C1083.58 510.848 1100.6 542.803 1104.52 576.714C1105.03 581.073 1108.04 598.865 1105.13 601.74C1101.33 603.095 1082.58 603.198 1078.93 602.011C1077.97 600.133 1077.9 597.358 1077.93 595.255C1078.08 583.377 1076.75 572.669 1073.69 561.119C1073.18 557.476 1071.6 553.167 1070.41 549.629C1064.32 530.908 1054.39 513.667 1041.25 499.011C1029.09 485.375 1014.09 474.564 997.312 467.338C994.411 466.102 988.817 463.704 985.774 463.478C975.808 462.741 964.913 463.773 954.938 463.184C955.299 469.185 954.99 478.467 954.988 484.792L954.975 527.367L954.946 577.035C954.944 582.067 955.803 600.298 953.964 603.477C949.817 604.849 926.75 605.164 923.499 602.9C922.446 601.23 922.95 565.499 922.955 560.522L922.967 480.828L922.959 368.901C922.963 351.619 922.902 334.295 922.895 317.013C922.894 314.82 922.808 311.606 924.264 310.004ZM955.006 324.899L954.962 409.524L954.991 434.068C954.998 437.787 955.185 444.68 954.717 448.197C965.179 448.356 975.641 448.42 986.104 448.39C1003.14 448.409 1017.38 449.872 1032.77 441.136C1037.23 438.603 1040.7 436.988 1044.52 433.295L1044.97 432.86C1055.14 425.687 1063.57 408.196 1065.53 396.127C1070.84 363.322 1048.26 331.384 1015.41 325.7C1004.72 323.851 992.984 324.967 982.14 324.641C976.325 324.618 966.335 324.369 960.779 324.746L955.006 324.899Z" fill="white"/>
    <path d="M866.207 309.832C869.607 309.764 879.451 308.806 881.486 311.521C881.505 314.055 854.418 348.739 850.309 354.134L801.562 418.34L788.198 435.828C784.898 440.083 780.028 446.142 777.259 450.604C783.858 462.532 793.337 477.308 800.492 489.157L844.498 562.108L860.774 588.799C863.093 592.628 865.88 596.807 867.777 600.824C868.405 602.154 868.1 602.762 867.553 604.002C863.836 604.563 837.376 604.432 832.888 604.136C828.441 600.117 817.136 579.602 813.246 573.13L782.823 522.548L765.408 493.352C763.07 489.408 758.004 481.295 756.362 477.344C751.86 483.979 745.858 491.455 740.941 497.883L712.808 534.737L682.777 574.323C676.281 582.962 666.672 596.17 659.77 604.147C656.456 604.457 645.583 605.158 643.411 602.846C643.245 599.652 651.886 589.613 654.251 586.512L666.254 570.538L723.47 495.488L738.607 475.563C741.61 471.671 744.753 468.044 747.543 463.996C745.571 460.012 741.628 453.886 739.227 449.87L720.103 418.46L677.725 347.79C671.559 337.704 662.451 323.505 657.127 312.676C656.686 311.78 657.39 310.709 657.807 309.92L678.059 309.782C693.91 309.695 691.463 308.015 699.522 321.59C702.854 327.095 706.152 332.621 709.418 338.165L748.662 403.397L760.596 423.217C762.672 426.721 766.031 432.877 768.405 435.776C769.882 435.633 776.63 426.013 778.034 424.161C783.887 416.479 789.695 408.763 795.458 401.013L841.61 340.482C845.821 334.905 861.328 313.017 865.851 310.05C865.967 309.974 866.088 309.904 866.207 309.832Z" fill="white"/>
    <path d="M1266.7 309.894C1271.17 309.742 1277.01 309.59 1281.39 310.148C1283.66 314.958 1285.08 319.292 1286.99 324.191C1290.76 333.83 1294.47 343.491 1298.13 353.173L1327.49 429.046L1365.53 526.837L1383.08 571.727C1386.61 580.731 1390.35 589.758 1393.59 598.88C1394.19 600.593 1394.82 602.05 1394.05 603.564C1390.63 604.751 1365.29 604.668 1361.39 603.782C1357.56 595.702 1353.24 583.724 1350 575.193C1345.25 562.746 1340.43 550.327 1335.53 537.937L1291.44 424.758C1283.66 404.606 1275.55 382.218 1267.42 362.431C1266.12 359.486 1265.48 357.985 1264.62 354.912C1261.42 361.169 1258.4 369.758 1255.75 376.403L1242.22 409.386L1185.02 548.638L1169.7 586.167C1167.35 591.874 1164.72 598.674 1162.1 604.143C1158.93 604.354 1151.26 605.328 1148.62 603.642C1148.19 603.365 1147.63 602.99 1147.53 602.443C1147.01 599.738 1169.69 546.311 1173 538.355L1242.48 368.434L1259.21 326.971C1260.86 322.933 1264.68 312.856 1266.7 309.894Z" fill="white"/>
    <path d="M1179.49 248.114C1179.68 248.15 1179.86 248.177 1180.04 248.222C1182.98 248.96 1197.73 271.264 1200.6 275.589C1197.39 278.332 1191.76 282.859 1187.85 284.634C1187.39 284.847 1184.74 285.076 1184.09 285.128C1182.39 285.121 1180.57 284.904 1178.87 284.748C1175.57 280.63 1163.64 265.513 1163.2 261.032C1163.98 258.392 1176.42 250.855 1179.49 248.114Z" fill="white"/>
    <path d="M1364.57 248.053C1370.7 251.243 1377.78 256.881 1383.32 261.135C1382.33 262.671 1381.19 264.295 1380.12 265.797C1375.8 271.923 1371.71 278.337 1366.96 284.13C1366.54 284.645 1364.83 284.935 1364.16 285.055C1355.18 285.324 1351.81 281.412 1345.07 275.861C1346.56 272.038 1361.31 251.701 1364.57 248.053Z" fill="white"/>
    <path d="M1272.67 197.643C1274.46 198.756 1277.54 209.141 1279.83 212.092C1282.52 215.573 1293.63 217.294 1293.15 220.458C1291.09 223.034 1283.45 225.735 1280.19 226.955C1277.71 231.131 1275.48 237.473 1273.09 242.204C1270.15 238.285 1268.06 231.907 1265.33 227.029C1262.3 225.777 1254.64 222.961 1252.66 220.858C1251.69 216.807 1262.39 215.426 1264.84 212.949C1268.09 209.662 1270.24 202.242 1272.67 197.643Z" fill="white"/>
    <path d="M1390.86 210.95C1393.67 211.376 1407.54 221.514 1409.09 223.938C1408.9 225.994 1398.64 239.957 1396.75 242.63C1393.96 241.294 1379.86 231.604 1378.49 229.167C1379.11 226.242 1388.53 213.416 1390.86 210.95Z" fill="white"/>
    <path d="M1153.03 211.218C1154.2 211.25 1155.28 211.636 1155.89 212.65C1157.83 215.929 1166.82 226.411 1166.53 229.546C1164.24 232.683 1154.44 238.721 1150.43 241.787C1149.8 242.204 1149.98 242.069 1149.18 242.231C1148.85 242.051 1148.2 241.71 1147.97 241.409C1132.15 221.095 1134.2 223.972 1153.03 211.218Z" fill="white"/>
    <path d="M720.714 1028.46C721.822 1029.2 722.24 1029.17 722.577 1030.16C721.647 1030.6 721.097 1030.44 720.071 1030.34L720.287 1030.03C719.871 1029.69 719.456 1029.42 718.994 1029.14C719.567 1028.35 719.252 1028.7 720.714 1028.46Z" fill="#FEFEFE" fill-opacity="0.0117647"/>
    <path d="M1329.3 197H1331.09C1336.59 201.189 1344.82 203.313 1349.2 207.008C1349.9 209.645 1335.74 237.468 1333.67 241.69L1312.76 284.793C1306.6 285.327 1294.59 284.661 1290.63 279.255C1290 276.852 1303.51 250.397 1305.3 246.711L1329.3 197Z" fill="white"/>
    <path d="M1214.5 197H1216.3C1217.19 200.43 1221.53 208.289 1223.78 213.214C1233.65 234.742 1245.6 256.348 1254.76 278.159C1255.02 278.793 1254.15 280.107 1253.67 280.45C1247.18 285.113 1239.79 285.276 1232.65 284.875C1230.43 279.5 1225.14 269.561 1222.43 264.042L1206.93 231.776C1204.5 226.83 1196.53 212.077 1196.01 207.512C1197.03 205.285 1211.14 199.728 1214.5 197Z" fill="white"/>
  </g>
  <defs>
    <clipPath id="clip0_539_369">
      <rect width="2048" height="1234" fill="white"/>
    </clipPath>
  </defs>
</svg>
