<svg width="2048" height="1234" viewBox="0 0 2048 1234" fill="none" xmlns="http://www.w3.org/2000/svg">
<g clip-path="url(#clip0_539_413)">
<rect width="2048" height="1234" fill="black"/>
<path d="M924.264 287.004C930.957 286.671 938.636 286.848 945.439 286.843L981.48 286.815L1006.98 286.808C1027.72 286.811 1044.33 288.131 1061.91 300.824C1078.95 312.916 1090.42 331.342 1093.76 351.972C1096.89 371.969 1091.85 392.385 1079.78 408.635C1069.2 422.91 1054.1 433.187 1036.93 437.797C1033.64 438.656 1029.16 439.261 1025.72 439.791C1038.72 447.499 1048.24 453.812 1059.08 464.297C1083.58 487.848 1100.6 519.803 1104.52 553.714C1105.03 558.073 1108.04 575.865 1105.13 578.74C1101.33 580.095 1082.58 580.198 1078.93 579.011C1077.97 577.133 1077.9 574.358 1077.93 572.255C1078.08 560.377 1076.75 549.669 1073.69 538.119C1073.18 534.476 1071.6 530.167 1070.41 526.629C1064.32 507.908 1054.39 490.667 1041.25 476.011C1029.09 462.375 1014.09 451.564 997.312 444.338C994.411 443.102 988.817 440.704 985.774 440.478C975.808 439.741 964.913 440.773 954.938 440.184C955.299 446.185 954.99 455.467 954.988 461.792L954.975 504.367L954.946 554.035C954.944 559.067 955.803 577.298 953.964 580.477C949.817 581.849 926.75 582.164 923.499 579.9C922.446 578.23 922.95 542.499 922.955 537.522L922.967 457.828L922.959 345.901C922.963 328.619 922.902 311.295 922.895 294.013C922.894 291.82 922.808 288.606 924.264 287.004ZM955.006 301.899L954.962 386.524L954.991 411.068C954.998 414.787 955.185 421.68 954.717 425.197C965.179 425.356 975.641 425.42 986.104 425.39C1003.14 425.409 1017.38 426.872 1032.77 418.136C1037.23 415.603 1040.7 413.988 1044.52 410.295L1044.97 409.86C1055.14 402.687 1063.57 385.196 1065.53 373.127C1070.84 340.322 1048.26 308.384 1015.41 302.7C1004.72 300.851 992.984 301.967 982.14 301.641C976.325 301.618 966.335 301.369 960.779 301.746L955.006 301.899Z" fill="#FEFEFE"/>
<path d="M866.207 286.832C869.607 286.764 879.451 285.806 881.486 288.521C881.505 291.055 854.418 325.739 850.309 331.134L801.562 395.34L788.198 412.828C784.898 417.083 780.028 423.142 777.259 427.604C783.858 439.532 793.337 454.308 800.492 466.157L844.498 539.108L860.774 565.799C863.093 569.628 865.88 573.807 867.777 577.824C868.405 579.154 868.1 579.762 867.553 581.002C863.836 581.563 837.376 581.432 832.888 581.136C828.441 577.117 817.136 556.602 813.246 550.13L782.823 499.548L765.408 470.352C763.07 466.408 758.004 458.295 756.362 454.344C751.86 460.979 745.858 468.455 740.941 474.883L712.808 511.737L682.777 551.323C676.281 559.962 666.672 573.17 659.77 581.147C656.456 581.457 645.583 582.158 643.411 579.846C643.245 576.652 651.886 566.613 654.251 563.512L666.254 547.538L723.47 472.488L738.607 452.563C741.61 448.671 744.753 445.044 747.543 440.996C745.571 437.012 741.628 430.886 739.227 426.87L720.103 395.46L677.725 324.79C671.559 314.704 662.451 300.505 657.127 289.676C656.686 288.78 657.39 287.709 657.807 286.92L678.059 286.782C693.91 286.695 691.463 285.015 699.522 298.59C702.854 304.095 706.152 309.621 709.418 315.165L748.662 380.397L760.596 400.217C762.672 403.721 766.031 409.877 768.405 412.776C769.882 412.633 776.63 403.013 778.034 401.161C783.887 393.479 789.695 385.763 795.458 378.013L841.61 317.482C845.821 311.905 861.328 290.017 865.851 287.05C865.967 286.974 866.088 286.904 866.207 286.832Z" fill="#FEFEFE"/>
<path d="M1266.7 286.894C1271.17 286.742 1277.01 286.59 1281.39 287.148C1283.66 291.958 1285.08 296.292 1286.99 301.191C1290.76 310.83 1294.47 320.491 1298.13 330.173L1327.49 406.046L1365.53 503.837L1383.08 548.727C1386.61 557.731 1390.35 566.758 1393.59 575.88C1394.19 577.593 1394.82 579.05 1394.05 580.564C1390.63 581.751 1365.29 581.668 1361.39 580.782C1357.56 572.702 1353.24 560.724 1350 552.193C1345.25 539.746 1340.43 527.327 1335.53 514.937L1291.44 401.758C1283.66 381.606 1275.55 359.218 1267.42 339.431C1266.12 336.486 1265.48 334.985 1264.62 331.912C1261.42 338.169 1258.4 346.758 1255.75 353.403L1242.22 386.386L1185.02 525.638L1169.7 563.167C1167.35 568.874 1164.72 575.674 1162.1 581.143C1158.93 581.354 1151.26 582.328 1148.62 580.642C1148.19 580.365 1147.63 579.99 1147.53 579.443C1147.01 576.738 1169.69 523.311 1173 515.355L1242.48 345.434L1259.21 303.971C1260.86 299.933 1264.68 289.856 1266.7 286.894Z" fill="#FEFEFE"/>
<path d="M1038.76 736.271C1073.64 733.158 1104.43 758.924 1107.52 793.808C1110.62 828.696 1084.83 859.474 1049.95 862.546C1015.1 865.61 984.363 839.852 981.275 805.001C978.186 770.146 1003.92 739.384 1038.76 736.271ZM1046.76 858.44C1109.4 856.537 1106.95 737.661 1044.06 740.036C1043.1 740.077 1042.14 740.147 1041.19 740.254C1004.72 742.571 995.022 776.926 997.192 807.942C999.223 836.977 1015.17 859.945 1046.76 858.44Z" fill="#FEFEFE"/>
<path d="M650.721 1007.4C649.148 1005.51 647.879 1004.01 647.555 1001.47C646.65 994.37 646.98 986.097 646.981 978.911L646.997 922.424C646.999 914.369 647.297 905.157 646.73 897.179C646.517 894.177 640.622 892.671 640.276 891.47C646.554 888.8 687.234 890.957 696.727 891.392C707.821 891.9 722.409 901.744 726.621 912.876C733.756 931.731 726.124 950.643 707.448 958.92C705.618 959.716 702.093 960.638 700.688 961.713C701.668 962.537 702.465 962.345 703.495 962.976C717.677 971.704 722.528 989.226 732.515 1001.79C735.446 1005.47 741.023 1006.67 743.609 1009.53L743.495 1010.1C739.471 1011.06 716.011 1011.93 713.762 1009.14C714.873 1007.18 717.981 1007.47 720.071 1007.34C721.096 1007.44 721.647 1007.6 722.576 1007.16C722.24 1006.17 721.822 1006.2 720.713 1005.46L720.289 1005.05C710.755 995.854 704.754 978.21 695.259 968.513C688.828 961.947 676.149 964.395 667.892 963.994C665.281 963.866 661.476 964.002 658.823 964.199C665.343 972.119 660.603 993.024 662.796 1005.04C665.238 1007.77 667.78 1007.68 669.369 1009.29C667.52 1012.24 643.917 1010.59 639.688 1010.11L639 1009.64C639.977 1006.53 647.77 1007.41 650.721 1007.4ZM704.674 951.32C708.701 947.214 711.078 943.584 712.899 937.998C719.103 918.979 707.848 895.953 686.734 894.148C683.483 893.873 680.192 893.972 676.92 893.98L661.543 894.045L659.947 894.238C659.346 895.965 661.388 898.688 661.858 900.522C662.286 902.191 662.199 904.172 662.219 905.891C662.321 914.299 660.912 952.698 663.27 957.542C663.822 958.678 664.655 959.191 665.85 959.515C668.994 960.376 672.834 959.986 676.088 959.921C684.473 959.748 691.841 960.122 699.252 955.499C701.157 954.31 703.055 952.878 704.674 951.32Z" fill="#FEFEFE"/>
<path d="M1201.56 890.699C1208.36 890.227 1217.76 890.473 1224.83 890.53C1236.54 890.838 1248.28 889.669 1259.81 892.064C1280.22 896.305 1292.38 914.123 1287.98 934.602C1285.55 945.914 1278.95 952.476 1269.02 958.104C1266.4 959.593 1263.36 959.945 1260.7 961.59L1260.67 962.115C1276.29 966.59 1284.07 996.092 1296.38 1005.65C1298.36 1007.19 1302.34 1006.99 1303.82 1009.48L1303.41 1010.02C1299.13 1010.92 1276.1 1011.96 1273.51 1009.28L1273.64 1008.47C1275.24 1007.21 1281.02 1007.43 1283.34 1007.41C1281.07 1005.89 1280.24 1005.32 1278.27 1003.43C1269.81 992.951 1263.15 976.889 1253.61 967.115C1252.2 965.626 1247.44 964.465 1245.51 964.318C1242.3 964.076 1220.02 963.28 1218.86 964.797C1219.86 965.692 1221.29 968.321 1221.4 969.58C1222.37 981.171 1221.39 993.127 1222.15 1004.74C1225.04 1007.93 1226.2 1007.01 1228.47 1009.26L1228.35 1009.87C1224.27 1011.49 1202.76 1011.25 1199.12 1009.82L1198.84 1009.02L1199.52 1008.34C1202.32 1007.45 1206.46 1006.97 1209.41 1007.02L1209.11 1006.43C1209.1 1006.41 1209.09 1006.4 1209.08 1006.37L1209.14 1006.79C1205.77 1000.24 1206.84 988.664 1206.83 981.052L1206.84 927.773C1206.86 918.495 1206.98 909.225 1206.74 899.948C1206.52 891.203 1202.23 894.919 1199.52 891.855C1200.2 890.936 1200.27 891.158 1201.56 890.699ZM1218.4 894.16C1219.43 895.637 1220.64 897.232 1221.02 898.996C1222.29 905.042 1221.86 912.613 1221.85 918.884L1221.77 945.04C1221.76 959.728 1220.98 960.257 1236.12 959.953C1244.69 959.777 1253.13 960.105 1260.46 954.609C1276.28 942.354 1278.7 921.563 1267.19 905.55C1257.49 892.052 1242.12 893.951 1227.72 894.025L1218.4 894.16Z" fill="#FEFEFE"/>
<path d="M880.463 890.715C887.458 890.116 895.937 890.453 903.249 890.531C922.006 890.744 949.431 887.791 961.923 905.374C970.896 918.003 968.69 939.585 957.184 950.319C941.22 965.212 923.779 964.281 903.361 963.998C901.88 963.977 898.766 963.805 897.671 964.58L898.141 965.031C903.373 973.94 898.554 995.596 901.718 1005.56C902.059 1006.63 906.059 1007.61 907.658 1009.28L907.456 1009.87C903.476 1011.66 881.09 1011.33 877.277 1009.28L877.234 1008.71C880.697 1007.02 884.96 1007.39 888.824 1007.41C884.704 1002.27 885.619 994.001 885.531 987.717C885.463 982.906 885.545 978.001 885.552 973.177L885.614 919.775C885.611 912.794 885.937 901.035 884.514 894.628C882.552 893.529 879.18 893.049 878.383 891.827C879.046 890.842 878.966 891.138 880.463 890.715ZM902.057 959.019C911.462 961.352 928.923 960.688 937.43 955.508C939.493 954.277 941.4 952.801 943.107 951.111C955.064 939.577 956.45 915.234 944.504 903.09C932.643 891.035 914.928 894.091 899.248 894.017L898.091 894.304C897.963 895.092 900.466 901.839 900.672 904.702C901.422 915.058 898.994 950.98 902.057 959.019Z" fill="#FEFEFE"/>
<path d="M792.26 889.948C801.199 889.337 809.941 889.698 814.832 898.443C819.07 906.022 822.033 914.578 825.285 922.634L847.679 979.182C850.84 986.938 855.089 998.254 858.921 1005.21C861.502 1006.61 865.316 1007.82 867.24 1009.22L866.869 1009.93C863.266 1011.44 839.937 1011.57 836.754 1009.32L836.865 1008.72C839.09 1007.18 844.162 1007.44 847.118 1007.35C845.738 1006.33 844.136 1005.09 843.24 1003.62C836.079 991.884 832.874 975.921 826.575 964.006L818.655 963.998L786.956 963.961C781.928 976.253 777.865 989.661 773.431 1002.2C771.276 1008.29 777.074 1006.15 779.042 1009.49L778.583 1009.97C775.052 1010.93 755.8 1012.49 754.23 1008.7C756.096 1007.16 761.771 1006 764.148 1004.23C765.662 1003.18 768.137 1001.25 768.884 999.493C774.324 986.68 778.732 973.202 783.532 960.151L795.433 928.331C798.103 921.264 801.587 912.979 803.168 905.735C801.513 901.4 799.675 896.068 794.864 894.386C793.129 893.779 789.919 893.262 789.605 891.281C790.431 890.375 791.083 890.309 792.26 889.948ZM788.172 960.114C794.841 959.72 803.177 959.917 809.974 959.933C815.569 959.933 821.851 960.073 827.389 959.876C820.205 953.026 817.502 939.836 813.414 930.886C811.779 927.309 807.643 914.496 805.487 912.56C801.468 926.214 795.836 939.159 791.171 952.587C790.243 955.257 789.392 957.546 788.172 960.114Z" fill="#FEFEFE"/>
<path d="M1125.02 739.384C1132.76 738.699 1140.79 742.042 1145.51 748.264C1152.8 757.862 1158.17 769.149 1164.3 779.53C1171.66 792.011 1178.78 804.64 1186.09 817.146C1192.75 828.49 1198.78 840.291 1206.26 851.102C1205.45 844.409 1205.82 832.969 1205.84 825.841L1205.93 777.652C1205.94 772.615 1206.88 746.869 1203.75 744.326C1202.05 743.978 1198.24 743.215 1198.27 740.988C1199.76 739.753 1204.04 739.778 1206.02 739.884C1209.49 740.073 1215.83 738.908 1218.15 741.673L1218.03 742.739C1214.16 746.91 1209.89 740.836 1209.94 754.453C1210.07 787.725 1209.7 821.075 1210.2 854.318C1210.23 856.726 1215.79 856.639 1217.1 858.785L1216.77 859.429C1213.64 860.634 1203.88 860.265 1199.93 860.249C1195.93 860.269 1189.97 860.606 1186.55 858.666L1186.76 857.726C1189.83 856.742 1192.51 856.697 1195.69 856.689C1194.28 854.962 1192 853.293 1190.8 851.365C1169.86 817.564 1151.02 781.655 1130.64 747.591C1131.52 754.289 1131.09 768.829 1131.08 776.22L1131.04 829.196C1131.04 833.781 1129.94 853.457 1133.05 855.926C1134.91 856.361 1137.91 856.98 1138.08 859.322C1136.44 860.597 1119.67 861.114 1117.96 858.551C1119.41 853.867 1126.95 857.837 1126.76 847.784C1126.11 813.585 1128.22 778 1126.37 743.941C1123.85 743.596 1119.49 743.522 1118.32 740.988L1118.95 740.225C1120.81 739.277 1122.87 739.45 1125.02 739.384Z" fill="#FEFEFE"/>
<path d="M899.216 738.97C916.022 738.244 933.756 739.388 950.687 738.921C957.347 738.736 966.09 738.584 972.624 739.122C973.254 743.962 974.964 758.887 973.438 762.628C972.314 763.452 972.952 763.194 971.387 763.21C970.202 760.901 969.188 755.06 967.969 752.255C967.026 750.085 965.142 745.172 962.874 744.208C961.548 743.642 957.384 743.055 956.179 743.055C950.775 743.063 916.408 742.403 913.789 743.453C919.549 754.79 913.633 787.213 917.722 792.389C923.009 795.399 939.961 793.459 946.479 794.021C951.418 794.444 957.182 793.697 959.188 788.685C959.956 786.77 959.883 784.854 961.409 783.484L962.407 783.538C962.679 783.821 962.972 784.083 963.118 784.481C964.397 787.959 965.034 808.561 962.174 809.8C958.796 808.311 959.517 801.679 956.663 800.071C950.572 796.638 939.775 798.16 932.811 798C926.475 797.852 919.544 797.704 913.567 798.106L913.472 798.66C914.197 800.817 915.241 800.657 915.997 803.754C916.99 814.176 916.091 828.105 916.286 838.597C916.606 855.815 914.241 856.291 933.214 855.938C942.092 855.897 951.767 856.295 960.565 856.078C969.035 855.864 972.577 848.625 973.578 841.357C973.923 838.855 974.237 835.771 976.849 834.889C979.667 836.805 976.987 856.123 976.569 859.962C959.625 860.327 941.735 859.794 924.683 860.003C917.716 860.089 899.385 860.438 893.669 859.617C892.609 858.576 892.456 858.03 893.156 856.857C896.157 855.208 900.433 856.439 904.183 855.758C904.393 853.285 902.576 853.74 902.051 851.779C901.299 848.966 901.416 844.573 901.407 841.616L901.404 777.332C901.406 769.699 901.832 751.098 900.774 744.724L900.658 744.052C899.076 743.076 895.085 741.538 895.01 739.7C896.184 738.802 897.679 739.003 899.216 738.97Z" fill="#FEFEFE"/>
<path d="M1317.75 890.699C1320.03 890.498 1322.59 890.506 1324.89 890.49C1347.88 890.317 1371.02 890.994 1393.98 890.317C1394.16 894.595 1396.17 912.121 1393.85 914.471C1388.79 913.663 1391.52 894.694 1380.67 894.423C1365.98 894.054 1349.09 893.221 1334.54 894.288C1335.95 896.306 1337.16 898.057 1337.41 900.571C1338.72 913.975 1336.85 927.806 1338.09 941.201C1338.23 944.138 1342.2 945.377 1344.77 945.385C1354.93 945.418 1366.17 946.189 1376.18 944.967C1380.42 944.45 1380.31 935.545 1383.33 934.741C1383.7 934.967 1384.74 935.439 1384.75 935.865C1384.94 940.356 1387.71 959.38 1382.94 961.004L1382.14 960.602C1381.65 959.966 1379.63 953.785 1379.05 952.382C1377.86 951.406 1376.58 950.59 1375.31 949.733C1369.73 949.253 1360.3 949.56 1354.49 949.532C1349.7 949.507 1339.47 949.302 1335.1 949.86C1335.06 950.824 1336.02 951.685 1336.75 952.628C1340.23 966.602 1335.69 989.858 1338.43 1004.28C1339.45 1009.65 1382.6 1007.53 1387.73 1006.45C1392.96 1005.35 1394.5 988.296 1398 987.282C1400.79 989.358 1398.2 1007.4 1397.79 1011.54C1371.83 1012.1 1345.57 1011.14 1319.58 1011.62C1317.82 1011.65 1315.15 1011.07 1313.72 1010.01L1313.62 1009.33C1315.94 1006.51 1322.7 1007.44 1326.13 1007.47C1324.57 1005.5 1323.32 1003.64 1323.14 1001.03C1322.52 991.983 1322.86 982.094 1322.87 972.993L1322.82 915.325C1322.82 909.964 1323.5 900.534 1322.05 895.633C1321.46 893.66 1316.67 893.451 1315.4 891.884C1316.25 890.805 1316.09 891.134 1317.75 890.699Z" fill="#FEFEFE"/>
<path d="M832.773 795.37C834.352 792.528 836.994 788.832 838.809 785.994L856.166 759.293C858.565 755.548 861.491 751.336 863.419 747.374C864.062 746.057 863.731 745.454 863.244 744.297C860.89 742.333 859.136 744.248 858.145 741.672C858.248 741.291 858.3 740.512 858.733 740.458C863.243 739.896 882.354 738.305 884.048 742.058C883.311 744.712 873.184 744.511 868.622 750.606C856.836 766.343 846.797 783.344 835.458 799.39C839.835 807.293 847.037 817.252 852.235 825.074C858.792 834.548 864.334 844.655 872.096 853.214C875.807 857.308 880.071 856.771 882.127 858.514L881.925 859.207L880.714 859.822C875.888 860.478 869.999 860.191 865.057 860.294C862.286 860.351 852.667 861.085 851.647 858.153C853.393 856.405 858.838 856.75 861.265 857.111C850.366 846.513 845.697 838.338 837.332 825.75C832.921 819.11 828.078 812.301 823.952 805.517C822.67 808.212 818.483 814.278 816.731 816.94L801.111 840.336C798.119 844.79 794.454 849.56 792.746 854.539C793.365 857.821 796.602 856.516 798.365 858.653L797.942 859.457C794.63 860.564 775.295 861.012 773.152 858.936C773.198 854.978 778.561 856.073 781.039 854.744C790.176 849.843 797.797 836.004 803.525 827.559L821.377 801.764C814.153 791.203 807.38 780.079 800.159 769.432C794.757 761.463 790.046 751.545 782.747 745.294C780.157 743.075 777.138 743.818 774.611 742.247C774.202 741.016 774.244 741.685 774.958 740.167C783.886 739.425 794.483 739.806 803.44 740.175C805.073 740.245 805.312 743.083 804.447 744.519C802.087 745.93 798.826 745.233 795.99 744.991C807.392 753.715 822.829 782.996 832.773 795.37Z" fill="#FEFEFE"/>
<path d="M1076.85 890.326C1077.46 890.42 1078.55 890.473 1078.75 891.249C1079.93 895.752 1083.64 913.102 1079.13 915.407C1075.44 913.532 1077.58 900.871 1068.18 894.575L1067.76 894.296C1060.07 893.492 1041 893.935 1032.73 894.14C1034.43 896.97 1035.35 899.579 1035.51 902.872C1035.94 911.691 1035.71 921.108 1035.71 929.951L1035.69 984.395C1035.69 987.89 1035.63 991.614 1035.7 995.088C1035.93 1006.08 1034.88 1006.41 1044.72 1010.49C1039.44 1011.46 1014.82 1013.05 1011.83 1009.96L1012.15 1009.41C1015.76 1007.62 1019.93 1008.25 1024.02 1008.39C1020.96 1003.3 1020.77 1001.59 1020.62 995.629L1020.65 933.191C1020.65 926.481 1021.46 900.957 1019.34 895.723C1015.69 892.869 992.066 893.504 987.166 895.551C980.981 898.139 981.108 912.462 977.968 915.427L977.203 915.394C976.887 915.033 976.121 914.143 976.073 913.729C975.547 909.185 976.778 895.022 978.268 891.265C979.978 890.018 998.086 890.555 1001.24 890.547L1048.55 890.551C1057.71 890.551 1067.81 890.732 1076.85 890.326Z" fill="#FEFEFE"/>
<path d="M1179.49 225.114C1179.68 225.15 1179.86 225.177 1180.04 225.222C1182.98 225.96 1197.73 248.264 1200.6 252.589C1197.39 255.332 1191.76 259.859 1187.85 261.634C1187.39 261.847 1184.74 262.076 1184.09 262.128C1182.39 262.121 1180.57 261.904 1178.87 261.748C1175.57 257.63 1163.64 242.513 1163.2 238.032C1163.98 235.392 1176.42 227.855 1179.49 225.114Z" fill="#FEFEFE"/>
<path d="M1364.57 225.053C1370.7 228.243 1377.78 233.881 1383.32 238.135C1382.33 239.671 1381.19 241.295 1380.12 242.797C1375.8 248.923 1371.71 255.337 1366.96 261.13C1366.54 261.645 1364.83 261.935 1364.16 262.055C1355.18 262.324 1351.81 258.412 1345.07 252.861C1346.56 249.038 1361.31 228.701 1364.57 225.053Z" fill="#FEFEFE"/>
<path d="M1272.67 174.643C1274.46 175.756 1277.54 186.141 1279.83 189.092C1282.52 192.573 1293.63 194.294 1293.15 197.458C1291.09 200.034 1283.45 202.735 1280.19 203.955C1277.71 208.131 1275.48 214.473 1273.09 219.204C1270.15 215.285 1268.06 208.907 1265.33 204.029C1262.3 202.777 1254.64 199.961 1252.66 197.858C1251.69 193.807 1262.39 192.426 1264.84 189.949C1268.09 186.662 1270.24 179.242 1272.67 174.643Z" fill="#FEFEFE"/>
<path d="M1390.86 187.95C1393.67 188.376 1407.54 198.514 1409.09 200.938C1408.9 202.994 1398.64 216.957 1396.75 219.63C1393.96 218.294 1379.86 208.604 1378.49 206.167C1379.11 203.242 1388.53 190.416 1390.86 187.95Z" fill="#FEFEFE"/>
<path d="M1153.03 188.218C1154.2 188.25 1155.28 188.636 1155.89 189.65C1157.83 192.929 1166.82 203.411 1166.53 206.546C1164.24 209.683 1154.44 215.721 1150.43 218.787C1149.8 219.204 1149.98 219.069 1149.18 219.231C1148.85 219.051 1148.2 218.71 1147.97 218.409C1132.15 198.095 1134.2 200.972 1153.03 188.218Z" fill="#FEFEFE"/>
<path d="M720.714 1005.46C721.822 1006.2 722.24 1006.17 722.577 1007.16C721.647 1007.6 721.097 1007.44 720.071 1007.34L720.287 1007.03C719.871 1006.69 719.456 1006.42 718.994 1006.14C719.567 1005.35 719.252 1005.7 720.714 1005.46Z" fill="#FEFEFE" fill-opacity="0.0117647"/>
<path d="M1135.98 1014C1123.67 1011.47 1113.29 1006.05 1106.32 995.326C1102.95 990.137 1100.72 983.977 1099.69 977.89C1097.55 965.335 1100.69 900.366 1097.78 895.731C1096.21 893.234 1093.38 894.255 1091.73 892.397C1093.05 890.096 1119.3 890.51 1122.24 891.753C1123.01 893.238 1122.93 892.487 1122.52 894.087C1120.04 896.929 1114.48 895.797 1110.92 895.834C1114.91 901.601 1113.87 910.563 1113.85 917.663L1113.76 951.414C1113.76 971.044 1111.89 1004.97 1137.77 1009.5C1145.35 1010.83 1153.73 1009.49 1160.07 1005C1168.59 998.972 1173.76 988.587 1175.41 978.452C1176.39 972.386 1176.7 899.05 1175.13 896.478C1173.78 894.275 1169.95 894.001 1168.78 891.974C1170.53 890.518 1187.59 890.326 1189.35 892.221C1188.2 895.026 1180.87 895.453 1180.43 899.181C1179.84 904.189 1180.12 910.784 1180.12 915.862L1180.13 952.025C1180.12 977.599 1180.91 1006.87 1149.62 1014H1135.98Z" fill="#FEFEFE"/>
<path d="M1329.3 174H1331.09C1336.59 178.189 1344.82 180.313 1349.2 184.008C1349.9 186.645 1335.74 214.468 1333.67 218.69L1312.76 261.793C1306.6 262.327 1294.59 261.661 1290.63 256.255C1290 253.852 1303.51 227.397 1305.3 223.711L1329.3 174Z" fill="#FEFEFE"/>
<path d="M1214.5 174H1216.3C1217.19 177.43 1221.53 185.289 1223.78 190.214C1233.65 211.742 1245.6 233.348 1254.76 255.159C1255.02 255.793 1254.15 257.107 1253.67 257.45C1247.18 262.113 1239.79 262.276 1232.65 261.875C1230.43 256.5 1225.14 246.561 1222.43 241.042L1206.93 208.776C1204.5 203.83 1196.53 189.077 1196.01 184.512C1197.03 182.285 1211.14 176.728 1214.5 174Z" fill="#FEFEFE"/>
</g>
<defs>
<clipPath id="clip0_539_413">
<rect width="2048" height="1234" fill="white"/>
</clipPath>
</defs>
</svg>
