<?xml version="1.0" encoding="utf-8"?>
<svg xmlns="http://www.w3.org/2000/svg" viewBox="0.6134 2.2367 498.7731 265.5266" width="498.773px" height="265.527px" preserveAspectRatio="none"><defs><clipPath id="clip0_539_413"><rect width="2048" height="1234" fill="white"/></clipPath></defs><g clip-path="url(#clip0_539_413)" transform="matrix(1.1545130014419556, 0, 0, 1.1545130014419556, -889.1693115234375, -608.5699462890625)" style="" id="object-0"><path d="M 929.171 592.821 C 932.941 592.633 937.281 592.733 941.111 592.73 L 961.451 592.715 L 975.841 592.711 C 987.541 592.712 996.911 593.457 1006.83 600.619 C 1016.44 607.442 1022.92 617.838 1024.8 629.478 C 1026.57 640.761 1023.72 652.281 1016.91 661.449 C 1010.94 669.504 1002.42 675.303 992.741 677.904 C 990.881 678.388 988.351 678.73 986.411 679.029 C 993.751 683.378 999.121 686.94 1005.23 692.856 C 1019.06 706.144 1028.66 724.174 1030.87 743.308 C 1031.16 745.767 1032.86 755.806 1031.22 757.428 C 1029.07 758.193 1018.49 758.251 1016.43 757.581 C 1015.89 756.522 1015.85 754.956 1015.87 753.769 C 1015.95 747.067 1015.2 741.026 1013.48 734.509 C 1013.19 732.453 1012.3 730.022 1011.62 728.026 C 1008.19 717.463 1002.59 707.735 995.171 699.465 C 988.311 691.771 979.851 685.671 970.381 681.594 C 968.751 680.897 965.591 679.544 963.871 679.416 C 958.251 679.001 952.101 679.583 946.471 679.25 C 946.681 682.636 946.501 687.874 946.501 691.442 L 946.501 715.465 L 946.481 743.489 C 946.481 746.328 946.961 756.615 945.921 758.409 C 943.581 759.183 930.571 759.36 928.741 758.083 C 928.141 757.141 928.431 736.98 928.431 734.172 L 928.441 689.206 L 928.431 626.053 C 928.431 616.302 928.401 606.527 928.391 596.776 C 928.391 595.538 928.341 593.725 929.171 592.821 Z M 946.511 601.225 L 946.491 648.974 L 946.501 662.822 C 946.511 664.921 946.611 668.81 946.351 670.794 C 952.251 670.884 958.151 670.92 964.061 670.903 C 973.671 670.914 981.711 671.739 990.391 666.81 C 992.901 665.381 994.861 664.47 997.021 662.386 L 997.271 662.141 C 1003.01 658.093 1007.77 648.224 1008.87 641.415 C 1011.87 622.905 999.131 604.884 980.591 601.677 C 974.561 600.634 967.941 601.264 961.821 601.08 C 958.541 601.067 952.901 600.926 949.771 601.139 L 946.511 601.225 Z" style=""/><path d="M 896.411 592.724 C 898.331 592.686 903.881 592.145 905.031 593.677 C 905.041 595.107 889.761 614.677 887.441 617.721 L 859.931 653.948 L 852.391 663.815 C 850.531 666.216 847.781 669.635 846.221 672.152 C 849.941 678.883 855.291 687.22 859.331 693.905 L 884.161 735.067 L 893.341 750.127 C 894.651 752.287 896.221 754.645 897.301 756.912 C 897.651 757.662 897.481 758.005 897.171 758.705 C 895.071 759.021 880.141 758.947 877.611 758.78 C 875.101 756.513 868.721 744.937 866.531 741.286 L 849.361 712.746 L 839.541 696.272 C 838.211 694.047 835.361 689.469 834.431 687.24 C 831.891 690.984 828.501 695.202 825.73 698.829 L 809.857 719.623 L 792.912 741.959 C 789.247 746.833 783.825 754.286 779.931 758.787 C 778.061 758.961 771.926 759.357 770.701 758.052 C 770.607 756.25 775.483 750.586 776.817 748.836 L 783.589 739.823 L 815.873 697.477 L 824.414 686.235 C 826.108 684.039 827.881 681.993 829.451 679.709 C 828.341 677.461 826.118 674.004 824.763 671.738 L 813.973 654.016 L 790.062 614.141 C 786.583 608.45 781.444 600.439 778.44 594.329 C 778.191 593.823 778.588 593.219 778.823 592.774 L 790.25 592.696 C 799.194 592.647 797.813 591.699 802.36 599.358 C 804.24 602.464 806.101 605.582 807.944 608.711 L 830.091 645.517 L 836.821 656.7 C 837.991 658.677 839.891 662.15 841.231 663.786 C 842.061 663.705 845.871 658.277 846.661 657.232 C 849.961 652.898 853.241 648.544 856.491 644.171 L 882.531 610.018 C 884.911 606.871 893.661 594.521 896.211 592.847 C 896.271 592.804 896.341 592.765 896.411 592.724 Z" style=""/><path d="M 1122.38 592.759 C 1124.9 592.673 1128.2 592.588 1130.67 592.902 C 1131.95 595.616 1132.75 598.062 1133.83 600.826 C 1135.95 606.265 1138.05 611.716 1140.11 617.179 L 1156.68 659.989 L 1178.14 715.166 L 1188.04 740.494 C 1190.04 745.574 1192.15 750.668 1193.97 755.815 C 1194.31 756.781 1194.67 757.603 1194.23 758.458 C 1192.3 759.127 1178.01 759.081 1175.81 758.581 C 1173.64 754.022 1171.21 747.263 1169.38 742.45 C 1166.7 735.427 1163.98 728.419 1161.22 721.429 L 1136.34 657.569 C 1131.95 646.199 1127.37 633.567 1122.79 622.402 C 1122.05 620.741 1121.69 619.894 1121.21 618.16 C 1119.4 621.69 1117.7 626.536 1116.2 630.286 L 1108.57 648.896 L 1076.29 727.466 L 1067.65 748.642 C 1066.32 751.862 1064.84 755.698 1063.36 758.784 C 1061.57 758.903 1057.24 759.453 1055.75 758.502 C 1055.51 758.345 1055.2 758.134 1055.14 757.825 C 1054.85 756.299 1067.64 726.154 1069.51 721.664 L 1108.71 625.789 L 1118.15 602.395 C 1119.08 600.116 1121.24 594.43 1122.38 592.759 Z" style=""/><path d="M 1073.17 557.901 C 1073.28 557.921 1073.38 557.936 1073.48 557.962 C 1075.14 558.378 1083.46 570.963 1085.08 573.403 C 1083.27 574.951 1080.09 577.505 1077.89 578.507 C 1077.63 578.627 1076.13 578.756 1075.77 578.785 C 1074.81 578.781 1073.78 578.659 1072.82 578.571 C 1070.96 576.247 1064.23 567.718 1063.98 565.189 C 1064.42 563.7 1071.44 559.447 1073.17 557.901 Z" style=""/><path d="M 1177.6 557.866 C 1181.06 559.666 1185.05 562.847 1188.18 565.248 C 1187.62 566.114 1186.98 567.031 1186.37 567.878 C 1183.94 571.335 1181.63 574.954 1178.95 578.222 C 1178.71 578.513 1177.75 578.676 1177.37 578.744 C 1172.3 578.896 1170.4 576.689 1166.6 573.557 C 1167.44 571.399 1175.76 559.925 1177.6 557.866 Z" style=""/><path d="M 1125.75 529.423 C 1126.76 530.051 1128.5 535.911 1129.79 537.576 C 1131.3 539.54 1137.57 540.511 1137.3 542.296 C 1136.14 543.75 1131.83 545.274 1129.99 545.962 C 1128.59 548.318 1127.33 551.897 1125.98 554.566 C 1124.32 552.355 1123.15 548.756 1121.61 546.004 C 1119.9 545.297 1115.57 543.709 1114.46 542.522 C 1113.91 540.236 1119.95 539.457 1121.33 538.059 C 1123.16 536.205 1124.38 532.018 1125.75 529.423 Z" style=""/><path d="M 1192.43 536.932 C 1194.02 537.172 1201.84 542.892 1202.72 544.26 C 1202.61 545.42 1196.82 553.298 1195.76 554.806 C 1194.18 554.053 1186.23 548.585 1185.45 547.21 C 1185.8 545.56 1191.12 538.323 1192.43 536.932 Z" style=""/><path d="M 1058.24 537.083 C 1058.9 537.101 1059.51 537.319 1059.86 537.891 C 1060.95 539.741 1066.02 545.655 1065.86 547.424 C 1064.57 549.194 1059.04 552.601 1056.78 554.331 C 1056.42 554.566 1056.52 554.49 1056.07 554.581 C 1055.88 554.48 1055.52 554.287 1055.39 554.118 C 1046.46 542.656 1047.62 544.279 1058.24 537.083 Z" style=""/><path d="M 1157.7 529.06 L 1158.71 529.06 C 1161.81 531.424 1166.46 532.622 1168.93 534.707 C 1169.32 536.195 1161.33 551.894 1160.16 554.276 L 1148.37 578.596 C 1144.89 578.898 1138.11 578.522 1135.88 575.472 C 1135.53 574.116 1143.15 559.189 1144.16 557.109 L 1157.7 529.06 Z" style=""/><path d="M 1092.93 529.06 L 1093.94 529.06 C 1094.44 530.996 1096.89 535.43 1098.16 538.209 C 1103.73 550.356 1110.47 562.547 1115.64 574.853 C 1115.79 575.211 1115.3 575.952 1115.03 576.146 C 1111.36 578.777 1107.2 578.869 1103.17 578.643 C 1101.91 575.61 1098.93 570.002 1097.4 566.888 L 1088.65 548.682 C 1087.28 545.892 1082.79 537.567 1082.49 534.992 C 1083.07 533.735 1091.03 530.6 1092.93 529.06 Z" style=""/></g></svg>