<svg width="2048" height="1234" viewBox="0 0 2048 1234" fill="none" xmlns="http://www.w3.org/2000/svg">
<g clip-path="url(#clip0_539_369)">
<rect width="2048" height="1234" fill="white"/>
<path d="M924.264 310.004C930.957 309.671 938.636 309.848 945.439 309.843L981.48 309.815L1006.98 309.808C1027.72 309.811 1044.33 311.131 1061.91 323.824C1078.95 335.916 1090.42 354.342 1093.76 374.972C1096.89 394.969 1091.85 415.385 1079.78 431.635C1069.2 445.91 1054.1 456.187 1036.93 460.797C1033.64 461.656 1029.16 462.261 1025.72 462.791C1038.72 470.499 1048.24 476.812 1059.08 487.297C1083.58 510.848 1100.6 542.803 1104.52 576.714C1105.03 581.073 1108.04 598.865 1105.13 601.74C1101.33 603.095 1082.58 603.198 1078.93 602.011C1077.97 600.133 1077.9 597.358 1077.93 595.255C1078.08 583.377 1076.75 572.669 1073.69 561.119C1073.18 557.476 1071.6 553.167 1070.41 549.629C1064.32 530.908 1054.39 513.667 1041.25 499.011C1029.09 485.375 1014.09 474.564 997.312 467.338C994.411 466.102 988.817 463.704 985.774 463.478C975.808 462.741 964.913 463.773 954.938 463.184C955.299 469.185 954.99 478.467 954.988 484.792L954.975 527.367L954.946 577.035C954.944 582.067 955.803 600.298 953.964 603.477C949.817 604.849 926.75 605.164 923.499 602.9C922.446 601.23 922.95 565.499 922.955 560.522L922.967 480.828L922.959 368.901C922.963 351.619 922.902 334.295 922.895 317.013C922.894 314.82 922.808 311.606 924.264 310.004ZM955.006 324.899L954.962 409.524L954.991 434.068C954.998 437.787 955.185 444.68 954.717 448.197C965.179 448.356 975.641 448.42 986.104 448.39C1003.14 448.409 1017.38 449.872 1032.77 441.136C1037.23 438.603 1040.7 436.988 1044.52 433.295L1044.97 432.86C1055.14 425.687 1063.57 408.196 1065.53 396.127C1070.84 363.322 1048.26 331.384 1015.41 325.7C1004.72 323.851 992.984 324.967 982.14 324.641C976.325 324.618 966.335 324.369 960.779 324.746L955.006 324.899Z" fill="black"/>
<path d="M866.207 309.832C869.607 309.764 879.451 308.806 881.486 311.521C881.505 314.055 854.418 348.739 850.309 354.134L801.562 418.34L788.198 435.828C784.898 440.083 780.028 446.142 777.259 450.604C783.858 462.532 793.337 477.308 800.492 489.157L844.498 562.108L860.774 588.799C863.093 592.628 865.88 596.807 867.777 600.824C868.405 602.154 868.1 602.762 867.553 604.002C863.836 604.563 837.376 604.432 832.888 604.136C828.441 600.117 817.136 579.602 813.246 573.13L782.823 522.548L765.408 493.352C763.07 489.408 758.004 481.295 756.362 477.344C751.86 483.979 745.858 491.455 740.941 497.883L712.808 534.737L682.777 574.323C676.281 582.962 666.672 596.17 659.77 604.147C656.456 604.457 645.583 605.158 643.411 602.846C643.245 599.652 651.886 589.613 654.251 586.512L666.254 570.538L723.47 495.488L738.607 475.563C741.61 471.671 744.753 468.044 747.543 463.996C745.571 460.012 741.628 453.886 739.227 449.87L720.103 418.46L677.725 347.79C671.559 337.704 662.451 323.505 657.127 312.676C656.686 311.78 657.39 310.709 657.807 309.92L678.059 309.782C693.91 309.695 691.463 308.015 699.522 321.59C702.854 327.095 706.152 332.621 709.418 338.165L748.662 403.397L760.596 423.217C762.672 426.721 766.031 432.877 768.405 435.776C769.882 435.633 776.63 426.013 778.034 424.161C783.887 416.479 789.695 408.763 795.458 401.013L841.61 340.482C845.821 334.905 861.328 313.017 865.851 310.05C865.967 309.974 866.088 309.904 866.207 309.832Z" fill="black"/>
<path d="M1266.7 309.894C1271.17 309.742 1277.01 309.59 1281.39 310.148C1283.66 314.958 1285.08 319.292 1286.99 324.191C1290.76 333.83 1294.47 343.491 1298.13 353.173L1327.49 429.046L1365.53 526.837L1383.08 571.727C1386.61 580.731 1390.35 589.758 1393.59 598.88C1394.19 600.593 1394.82 602.05 1394.05 603.564C1390.63 604.751 1365.29 604.668 1361.39 603.782C1357.56 595.702 1353.24 583.724 1350 575.193C1345.25 562.746 1340.43 550.327 1335.53 537.937L1291.44 424.758C1283.66 404.606 1275.55 382.218 1267.42 362.431C1266.12 359.486 1265.48 357.985 1264.62 354.912C1261.42 361.169 1258.4 369.758 1255.75 376.403L1242.22 409.386L1185.02 548.638L1169.7 586.167C1167.35 591.874 1164.72 598.674 1162.1 604.143C1158.93 604.354 1151.26 605.328 1148.62 603.642C1148.19 603.365 1147.63 602.99 1147.53 602.443C1147.01 599.738 1169.69 546.311 1173 538.355L1242.48 368.434L1259.21 326.971C1260.86 322.933 1264.68 312.856 1266.7 309.894Z" fill="black"/>
<path d="M1038.76 759.271C1073.64 756.158 1104.43 781.924 1107.52 816.808C1110.62 851.696 1084.83 882.474 1049.95 885.546C1015.1 888.61 984.363 862.852 981.275 828.001C978.186 793.146 1003.92 762.384 1038.76 759.271ZM1046.76 881.44C1109.4 879.537 1106.95 760.661 1044.06 763.036C1043.1 763.077 1042.14 763.147 1041.19 763.254C1004.72 765.571 995.022 799.926 997.192 830.942C999.223 859.977 1015.17 882.945 1046.76 881.44Z" fill="black"/>
<path d="M650.721 1030.4C649.148 1028.51 647.879 1027.01 647.555 1024.47C646.65 1017.37 646.98 1009.1 646.981 1001.91L646.997 945.424C646.999 937.369 647.297 928.157 646.73 920.179C646.517 917.177 640.622 915.671 640.276 914.47C646.554 911.8 687.234 913.957 696.727 914.392C707.821 914.9 722.409 924.744 726.621 935.876C733.756 954.731 726.124 973.643 707.448 981.92C705.618 982.716 702.093 983.638 700.688 984.713C701.668 985.537 702.465 985.345 703.495 985.976C717.677 994.704 722.528 1012.23 732.515 1024.79C735.446 1028.47 741.023 1029.67 743.609 1032.53L743.495 1033.1C739.471 1034.06 716.011 1034.93 713.762 1032.14C714.873 1030.18 717.981 1030.47 720.071 1030.34C721.096 1030.44 721.647 1030.6 722.576 1030.16C722.24 1029.17 721.822 1029.2 720.713 1028.46L720.289 1028.05C710.755 1018.85 704.754 1001.21 695.259 991.513C688.828 984.947 676.149 987.395 667.892 986.994C665.281 986.866 661.476 987.002 658.823 987.199C665.343 995.119 660.603 1016.02 662.796 1028.04C665.238 1030.77 667.78 1030.68 669.369 1032.29C667.52 1035.24 643.917 1033.59 639.688 1033.11L639 1032.64C639.977 1029.53 647.77 1030.41 650.721 1030.4ZM704.674 974.32C708.701 970.214 711.078 966.584 712.899 960.998C719.103 941.979 707.848 918.953 686.734 917.148C683.483 916.873 680.192 916.972 676.92 916.98L661.543 917.045L659.947 917.238C659.346 918.965 661.388 921.688 661.858 923.522C662.286 925.191 662.199 927.172 662.219 928.891C662.321 937.299 660.912 975.698 663.27 980.542C663.822 981.678 664.655 982.191 665.85 982.515C668.994 983.376 672.834 982.986 676.088 982.921C684.473 982.748 691.841 983.122 699.252 978.499C701.157 977.31 703.055 975.878 704.674 974.32Z" fill="black"/>
<path d="M1201.56 913.699C1208.36 913.227 1217.76 913.473 1224.83 913.53C1236.54 913.838 1248.28 912.669 1259.81 915.064C1280.22 919.305 1292.38 937.123 1287.98 957.602C1285.55 968.914 1278.95 975.476 1269.02 981.104C1266.4 982.593 1263.36 982.945 1260.7 984.59L1260.67 985.115C1276.29 989.59 1284.07 1019.09 1296.38 1028.65C1298.36 1030.19 1302.34 1029.99 1303.82 1032.48L1303.41 1033.02C1299.13 1033.92 1276.1 1034.96 1273.51 1032.28L1273.64 1031.47C1275.24 1030.21 1281.02 1030.43 1283.34 1030.41C1281.07 1028.89 1280.24 1028.32 1278.27 1026.43C1269.81 1015.95 1263.15 999.889 1253.61 990.115C1252.2 988.626 1247.44 987.465 1245.51 987.318C1242.3 987.076 1220.02 986.28 1218.86 987.797C1219.86 988.692 1221.29 991.321 1221.4 992.58C1222.37 1004.17 1221.39 1016.13 1222.15 1027.74C1225.04 1030.93 1226.2 1030.01 1228.47 1032.26L1228.35 1032.87C1224.27 1034.49 1202.76 1034.25 1199.12 1032.82L1198.84 1032.02L1199.52 1031.34C1202.32 1030.45 1206.46 1029.97 1209.41 1030.02L1209.11 1029.43C1209.1 1029.41 1209.09 1029.4 1209.08 1029.37L1209.14 1029.79C1205.77 1023.24 1206.84 1011.66 1206.83 1004.05L1206.84 950.773C1206.86 941.495 1206.98 932.225 1206.74 922.948C1206.52 914.203 1202.23 917.919 1199.52 914.855C1200.2 913.936 1200.27 914.158 1201.56 913.699ZM1218.4 917.16C1219.43 918.637 1220.64 920.232 1221.02 921.996C1222.29 928.042 1221.86 935.613 1221.85 941.884L1221.77 968.04C1221.76 982.728 1220.98 983.257 1236.12 982.953C1244.69 982.777 1253.13 983.105 1260.46 977.609C1276.28 965.354 1278.7 944.563 1267.19 928.55C1257.49 915.052 1242.12 916.951 1227.72 917.025L1218.4 917.16Z" fill="black"/>
<path d="M880.463 913.715C887.458 913.116 895.937 913.453 903.249 913.531C922.006 913.744 949.431 910.791 961.923 928.374C970.896 941.003 968.69 962.585 957.184 973.319C941.22 988.212 923.779 987.281 903.361 986.998C901.88 986.977 898.766 986.805 897.671 987.58L898.141 988.031C903.373 996.94 898.554 1018.6 901.718 1028.56C902.059 1029.63 906.059 1030.61 907.658 1032.28L907.456 1032.87C903.476 1034.66 881.09 1034.33 877.277 1032.28L877.234 1031.71C880.697 1030.02 884.96 1030.39 888.824 1030.41C884.704 1025.27 885.619 1017 885.531 1010.72C885.463 1005.91 885.545 1001 885.552 996.177L885.614 942.775C885.611 935.794 885.937 924.035 884.514 917.628C882.552 916.529 879.18 916.049 878.383 914.827C879.046 913.842 878.966 914.138 880.463 913.715ZM902.057 982.019C911.462 984.352 928.923 983.688 937.43 978.508C939.493 977.277 941.4 975.801 943.107 974.111C955.064 962.577 956.45 938.234 944.504 926.09C932.643 914.035 914.928 917.091 899.248 917.017L898.091 917.304C897.963 918.092 900.466 924.839 900.672 927.702C901.422 938.058 898.994 973.98 902.057 982.019Z" fill="black"/>
<path d="M792.26 912.948C801.199 912.337 809.941 912.698 814.832 921.443C819.07 929.022 822.033 937.578 825.285 945.634L847.679 1002.18C850.84 1009.94 855.089 1021.25 858.921 1028.21C861.502 1029.61 865.316 1030.82 867.24 1032.22L866.869 1032.93C863.266 1034.44 839.937 1034.57 836.754 1032.32L836.865 1031.72C839.09 1030.18 844.162 1030.44 847.118 1030.35C845.738 1029.33 844.136 1028.09 843.24 1026.62C836.079 1014.88 832.874 998.921 826.575 987.006L818.655 986.998L786.956 986.961C781.928 999.253 777.865 1012.66 773.431 1025.2C771.276 1031.29 777.074 1029.15 779.042 1032.49L778.583 1032.97C775.052 1033.93 755.8 1035.49 754.23 1031.7C756.096 1030.16 761.771 1029 764.148 1027.23C765.662 1026.18 768.137 1024.25 768.884 1022.49C774.324 1009.68 778.732 996.202 783.532 983.151L795.433 951.331C798.103 944.264 801.587 935.979 803.168 928.735C801.513 924.4 799.675 919.068 794.864 917.386C793.129 916.779 789.919 916.262 789.605 914.281C790.431 913.375 791.083 913.309 792.26 912.948ZM788.172 983.114C794.841 982.72 803.177 982.917 809.974 982.933C815.569 982.933 821.851 983.073 827.389 982.876C820.205 976.026 817.502 962.836 813.414 953.886C811.779 950.309 807.643 937.496 805.487 935.56C801.468 949.214 795.836 962.159 791.171 975.587C790.243 978.257 789.392 980.546 788.172 983.114Z" fill="black"/>
<path d="M1125.02 762.384C1132.76 761.699 1140.79 765.042 1145.51 771.264C1152.8 780.862 1158.17 792.149 1164.3 802.53C1171.66 815.011 1178.78 827.64 1186.09 840.146C1192.75 851.49 1198.78 863.291 1206.26 874.102C1205.45 867.409 1205.82 855.969 1205.84 848.841L1205.93 800.652C1205.94 795.615 1206.88 769.869 1203.75 767.326C1202.05 766.978 1198.24 766.215 1198.27 763.988C1199.76 762.753 1204.04 762.778 1206.02 762.884C1209.49 763.073 1215.83 761.908 1218.15 764.673L1218.03 765.739C1214.16 769.91 1209.89 763.836 1209.94 777.453C1210.07 810.725 1209.7 844.075 1210.2 877.318C1210.23 879.726 1215.79 879.639 1217.1 881.785L1216.77 882.429C1213.64 883.634 1203.88 883.265 1199.93 883.249C1195.93 883.269 1189.97 883.606 1186.55 881.666L1186.76 880.726C1189.83 879.742 1192.51 879.697 1195.69 879.689C1194.28 877.962 1192 876.293 1190.8 874.365C1169.86 840.564 1151.02 804.655 1130.64 770.591C1131.52 777.289 1131.09 791.829 1131.08 799.22L1131.04 852.196C1131.04 856.781 1129.94 876.457 1133.05 878.926C1134.91 879.361 1137.91 879.98 1138.08 882.322C1136.44 883.597 1119.67 884.114 1117.96 881.551C1119.41 876.867 1126.95 880.837 1126.76 870.784C1126.11 836.585 1128.22 801 1126.37 766.941C1123.85 766.596 1119.49 766.522 1118.32 763.988L1118.95 763.225C1120.81 762.277 1122.87 762.45 1125.02 762.384Z" fill="black"/>
<path d="M899.216 761.97C916.022 761.244 933.756 762.388 950.687 761.921C957.347 761.736 966.09 761.584 972.624 762.122C973.254 766.962 974.964 781.887 973.438 785.628C972.314 786.452 972.952 786.194 971.387 786.21C970.202 783.901 969.188 778.06 967.969 775.255C967.026 773.085 965.142 768.172 962.874 767.208C961.548 766.642 957.384 766.055 956.179 766.055C950.775 766.063 916.408 765.403 913.789 766.453C919.549 777.79 913.633 810.213 917.722 815.389C923.009 818.399 939.961 816.459 946.479 817.021C951.418 817.444 957.182 816.697 959.188 811.685C959.956 809.77 959.883 807.854 961.409 806.484L962.407 806.538C962.679 806.821 962.972 807.083 963.118 807.481C964.397 810.959 965.034 831.561 962.174 832.8C958.796 831.311 959.517 824.679 956.663 823.071C950.572 819.638 939.775 821.16 932.811 821C926.475 820.852 919.544 820.704 913.567 821.106L913.472 821.66C914.197 823.817 915.241 823.657 915.997 826.754C916.99 837.176 916.091 851.105 916.286 861.597C916.606 878.815 914.241 879.291 933.214 878.938C942.092 878.897 951.767 879.295 960.565 879.078C969.035 878.864 972.577 871.625 973.578 864.357C973.923 861.855 974.237 858.771 976.849 857.889C979.667 859.805 976.987 879.123 976.569 882.962C959.625 883.327 941.735 882.794 924.683 883.003C917.716 883.089 899.385 883.438 893.669 882.617C892.609 881.576 892.456 881.03 893.156 879.857C896.157 878.208 900.433 879.439 904.183 878.758C904.393 876.285 902.576 876.74 902.051 874.779C901.299 871.966 901.416 867.573 901.407 864.616L901.404 800.332C901.406 792.699 901.832 774.098 900.774 767.724L900.658 767.052C899.076 766.076 895.085 764.538 895.01 762.7C896.184 761.802 897.679 762.003 899.216 761.97Z" fill="black"/>
<path d="M1317.75 913.699C1320.03 913.498 1322.59 913.506 1324.89 913.49C1347.88 913.317 1371.02 913.994 1393.98 913.317C1394.16 917.595 1396.17 935.121 1393.85 937.471C1388.79 936.663 1391.52 917.694 1380.67 917.423C1365.98 917.054 1349.09 916.221 1334.54 917.288C1335.95 919.306 1337.16 921.057 1337.41 923.571C1338.72 936.975 1336.85 950.806 1338.09 964.201C1338.23 967.138 1342.2 968.377 1344.77 968.385C1354.93 968.418 1366.17 969.189 1376.18 967.967C1380.42 967.45 1380.31 958.545 1383.33 957.741C1383.7 957.967 1384.74 958.439 1384.75 958.865C1384.94 963.356 1387.71 982.38 1382.94 984.004L1382.14 983.602C1381.65 982.966 1379.63 976.785 1379.05 975.382C1377.86 974.406 1376.58 973.59 1375.31 972.733C1369.73 972.253 1360.3 972.56 1354.49 972.532C1349.7 972.507 1339.47 972.302 1335.1 972.86C1335.06 973.824 1336.02 974.685 1336.75 975.628C1340.23 989.602 1335.69 1012.86 1338.43 1027.28C1339.45 1032.65 1382.6 1030.53 1387.73 1029.45C1392.96 1028.35 1394.5 1011.3 1398 1010.28C1400.79 1012.36 1398.2 1030.4 1397.79 1034.54C1371.83 1035.1 1345.57 1034.14 1319.58 1034.62C1317.82 1034.65 1315.15 1034.07 1313.72 1033.01L1313.62 1032.33C1315.94 1029.51 1322.7 1030.44 1326.13 1030.47C1324.57 1028.5 1323.32 1026.64 1323.14 1024.03C1322.52 1014.98 1322.86 1005.09 1322.87 995.993L1322.82 938.325C1322.82 932.964 1323.5 923.534 1322.05 918.633C1321.46 916.66 1316.67 916.451 1315.4 914.884C1316.25 913.805 1316.09 914.134 1317.75 913.699Z" fill="black"/>
<path d="M832.773 818.37C834.352 815.528 836.994 811.832 838.809 808.994L856.166 782.293C858.565 778.548 861.491 774.336 863.419 770.374C864.062 769.057 863.731 768.454 863.244 767.297C860.89 765.333 859.136 767.248 858.145 764.672C858.248 764.291 858.3 763.512 858.733 763.458C863.243 762.896 882.354 761.305 884.048 765.058C883.311 767.712 873.184 767.511 868.622 773.606C856.836 789.343 846.797 806.344 835.458 822.39C839.835 830.293 847.037 840.252 852.235 848.074C858.792 857.548 864.334 867.655 872.096 876.214C875.807 880.308 880.071 879.771 882.127 881.514L881.925 882.207L880.714 882.822C875.888 883.478 869.999 883.191 865.057 883.294C862.286 883.351 852.667 884.085 851.647 881.153C853.393 879.405 858.838 879.75 861.265 880.111C850.366 869.513 845.697 861.338 837.332 848.75C832.921 842.11 828.078 835.301 823.952 828.517C822.67 831.212 818.483 837.278 816.731 839.94L801.111 863.336C798.119 867.79 794.454 872.56 792.746 877.539C793.365 880.821 796.602 879.516 798.365 881.653L797.942 882.457C794.63 883.564 775.295 884.012 773.152 881.936C773.198 877.978 778.561 879.073 781.039 877.744C790.176 872.843 797.797 859.004 803.525 850.559L821.377 824.764C814.153 814.203 807.38 803.079 800.159 792.432C794.757 784.463 790.046 774.545 782.747 768.294C780.157 766.075 777.138 766.818 774.611 765.247C774.202 764.016 774.244 764.685 774.958 763.167C783.886 762.425 794.483 762.806 803.44 763.175C805.073 763.245 805.312 766.083 804.447 767.519C802.087 768.93 798.826 768.233 795.99 767.991C807.392 776.715 822.829 805.996 832.773 818.37Z" fill="black"/>
<path d="M1076.85 913.326C1077.46 913.42 1078.55 913.473 1078.75 914.249C1079.93 918.752 1083.64 936.102 1079.13 938.407C1075.44 936.532 1077.58 923.871 1068.18 917.575L1067.76 917.296C1060.07 916.492 1041 916.935 1032.73 917.14C1034.43 919.97 1035.35 922.579 1035.51 925.872C1035.94 934.691 1035.71 944.108 1035.71 952.951L1035.69 1007.4C1035.69 1010.89 1035.63 1014.61 1035.7 1018.09C1035.93 1029.08 1034.88 1029.41 1044.72 1033.49C1039.44 1034.46 1014.82 1036.05 1011.83 1032.96L1012.15 1032.41C1015.76 1030.62 1019.93 1031.25 1024.02 1031.39C1020.96 1026.3 1020.77 1024.59 1020.62 1018.63L1020.65 956.191C1020.65 949.481 1021.46 923.957 1019.34 918.723C1015.69 915.869 992.066 916.504 987.166 918.551C980.981 921.139 981.108 935.462 977.968 938.427L977.203 938.394C976.887 938.033 976.121 937.143 976.073 936.729C975.547 932.185 976.778 918.022 978.268 914.265C979.978 913.018 998.086 913.555 1001.24 913.547L1048.55 913.551C1057.71 913.551 1067.81 913.732 1076.85 913.326Z" fill="black"/>
<path d="M1179.49 248.114C1179.68 248.15 1179.86 248.177 1180.04 248.222C1182.98 248.96 1197.73 271.264 1200.6 275.589C1197.39 278.332 1191.76 282.859 1187.85 284.634C1187.39 284.847 1184.74 285.076 1184.09 285.128C1182.39 285.121 1180.57 284.904 1178.87 284.748C1175.57 280.63 1163.64 265.513 1163.2 261.032C1163.98 258.392 1176.42 250.855 1179.49 248.114Z" fill="black"/>
<path d="M1364.57 248.053C1370.7 251.243 1377.78 256.881 1383.32 261.135C1382.33 262.671 1381.19 264.295 1380.12 265.797C1375.8 271.923 1371.71 278.337 1366.96 284.13C1366.54 284.645 1364.83 284.935 1364.16 285.055C1355.18 285.324 1351.81 281.412 1345.07 275.861C1346.56 272.038 1361.31 251.701 1364.57 248.053Z" fill="black"/>
<path d="M1272.67 197.643C1274.46 198.756 1277.54 209.141 1279.83 212.092C1282.52 215.573 1293.63 217.294 1293.15 220.458C1291.09 223.034 1283.45 225.735 1280.19 226.955C1277.71 231.131 1275.48 237.473 1273.09 242.204C1270.15 238.285 1268.06 231.907 1265.33 227.029C1262.3 225.777 1254.64 222.961 1252.66 220.858C1251.69 216.807 1262.39 215.426 1264.84 212.949C1268.09 209.662 1270.24 202.242 1272.67 197.643Z" fill="black"/>
<path d="M1390.86 210.95C1393.67 211.376 1407.54 221.514 1409.09 223.938C1408.9 225.994 1398.64 239.957 1396.75 242.63C1393.96 241.294 1379.86 231.604 1378.49 229.167C1379.11 226.242 1388.53 213.416 1390.86 210.95Z" fill="black"/>
<path d="M1153.03 211.218C1154.2 211.25 1155.28 211.636 1155.89 212.65C1157.83 215.929 1166.82 226.411 1166.53 229.546C1164.24 232.683 1154.44 238.721 1150.43 241.787C1149.8 242.204 1149.98 242.069 1149.18 242.231C1148.85 242.051 1148.2 241.71 1147.97 241.409C1132.15 221.095 1134.2 223.972 1153.03 211.218Z" fill="black"/>
<path d="M720.714 1028.46C721.822 1029.2 722.24 1029.17 722.577 1030.16C721.647 1030.6 721.097 1030.44 720.071 1030.34L720.287 1030.03C719.871 1029.69 719.456 1029.42 718.994 1029.14C719.567 1028.35 719.252 1028.7 720.714 1028.46Z" fill="#FEFEFE" fill-opacity="0.0117647"/>
<path d="M1135.98 1037C1123.67 1034.47 1113.29 1029.05 1106.32 1018.33C1102.95 1013.14 1100.72 1006.98 1099.69 1000.89C1097.55 988.335 1100.69 923.366 1097.78 918.731C1096.21 916.234 1093.38 917.255 1091.73 915.397C1093.05 913.096 1119.3 913.51 1122.24 914.753C1123.01 916.238 1122.93 915.487 1122.52 917.087C1120.04 919.929 1114.48 918.797 1110.92 918.834C1114.91 924.601 1113.87 933.563 1113.85 940.663L1113.76 974.414C1113.76 994.044 1111.89 1027.97 1137.77 1032.5C1145.35 1033.83 1153.73 1032.49 1160.07 1028C1168.59 1021.97 1173.76 1011.59 1175.41 1001.45C1176.39 995.386 1176.7 922.05 1175.13 919.478C1173.78 917.275 1169.95 917.001 1168.78 914.974C1170.53 913.518 1187.59 913.326 1189.35 915.221C1188.2 918.026 1180.87 918.453 1180.43 922.181C1179.84 927.189 1180.12 933.784 1180.12 938.862L1180.13 975.025C1180.12 1000.6 1180.91 1029.87 1149.62 1037H1135.98Z" fill="black"/>
<path d="M1329.3 197H1331.09C1336.59 201.189 1344.82 203.313 1349.2 207.008C1349.9 209.645 1335.74 237.468 1333.67 241.69L1312.76 284.793C1306.6 285.327 1294.59 284.661 1290.63 279.255C1290 276.852 1303.51 250.397 1305.3 246.711L1329.3 197Z" fill="black"/>
<path d="M1214.5 197H1216.3C1217.19 200.43 1221.53 208.289 1223.78 213.214C1233.65 234.742 1245.6 256.348 1254.76 278.159C1255.02 278.793 1254.15 280.107 1253.67 280.45C1247.18 285.113 1239.79 285.276 1232.65 284.875C1230.43 279.5 1225.14 269.561 1222.43 264.042L1206.93 231.776C1204.5 226.83 1196.53 212.077 1196.01 207.512C1197.03 205.285 1211.14 199.728 1214.5 197Z" fill="black"/>
</g>
<defs>
<clipPath id="clip0_539_369">
<rect width="2048" height="1234" fill="white"/>
</clipPath>
</defs>
</svg>
